# xmcd
#
# Track frame offsets: 
#        150
#        14780
#        38612
#        50625
#        71190
#        92207
#        108132
#        122530
#        139707
#        169927
#        186820
#        208892
#        225365
#
# Disc length: 3060 seconds
#
# Revision: 0
# Processed by: cddbd v1.5.2PL0 Copyright (c) Steve Scherf et al.
# Submitted via: ExactAudioCopy v0.99pb3
#
DISCID=b60bf20d
DTITLE=Kerry Kearney - Kerry Kearney
DYEAR=1999
DGENRE=Blues
TTITLE0=Girl From Memphis
TTITLE1=Gypsy Baby
TTITLE2=Come On Down
TTITLE3=I'm A Man
TTITLE4=Independence Day
TTITLE5=So Damn Lucky
TTITLE6=Howling At The Moon
TTITLE7=Roll Over Beethoven
TTITLE8=Rambling On My Mind
TTITLE9=Girl Like You
TTITLE10=Poor Boy
TTITLE11=Mississippi
TTITLE12=Take Me Out To The Ballgame
EXTD=
EXTT0=
EXTT1=
EXTT2=
EXTT3=
EXTT4=
EXTT5=
EXTT6=
EXTT7=
EXTT8=
EXTT9=
EXTT10=
EXTT11=
EXTT12=
PLAYORDER=
